<svg xmlns="http://www.w3.org/2000/svg" viewBox="0 0 64 64" width="64" height="64">
  <rect width="64" height="64" rx="14" fill="#0f0f0f"/>

  <line x1="13" y1="0" x2="13" y2="64" stroke="rgba(255,255,255,0.07)" stroke-width="0.5"/>
  <line x1="26" y1="0" x2="26" y2="64" stroke="rgba(255,255,255,0.07)" stroke-width="0.5"/>
  <line x1="39" y1="0" x2="39" y2="64" stroke="rgba(255,255,255,0.07)" stroke-width="0.5"/>
  <line x1="52" y1="0" x2="52" y2="64" stroke="rgba(255,255,255,0.07)" stroke-width="0.5"/>
  <line x1="0" y1="16" x2="64" y2="16" stroke="rgba(255,255,255,0.07)" stroke-width="0.5"/>
  <line x1="0" y1="32" x2="64" y2="32" stroke="rgba(255,255,255,0.07)" stroke-width="0.5"/>
  <line x1="0" y1="48" x2="64" y2="48" stroke="rgba(255,255,255,0.07)" stroke-width="0.5"/>

  <defs>
    <linearGradient id="g" x1="0" y1="0" x2="0" y2="1">
      <stop offset="0%" stop-color="rgba(52,211,153,0.25)"/>
      <stop offset="100%" stop-color="rgba(52,211,153,0)"/>
    </linearGradient>
    <clipPath id="clip"><rect width="64" height="64" rx="14"/></clipPath>
  </defs>

  <g clip-path="url(#clip)">
    <path d="M4 58 C12 54, 20 44, 28 36 S42 20, 58 10 L58 64 L4 64 Z" fill="url(#g)"/>
    <path d="M4 58 C12 54, 20 44, 28 36 S42 20, 58 10" fill="none" stroke="rgba(52,211,153,0.9)" stroke-width="1.8" stroke-linecap="round"/>

    <path d="M4 60 C12 57, 20 50, 28 44 S42 32, 58 22" fill="none" stroke="rgba(255,255,255,0.2)" stroke-width="1" stroke-linecap="round"/>
    <path d="M4 56 C12 50, 20 40, 28 30 S42 16, 58 6" fill="none" stroke="rgba(255,255,255,0.12)" stroke-width="1" stroke-linecap="round"/>
    <path d="M4 62 C12 60, 20 55, 28 50 S42 42, 58 36" fill="none" stroke="rgba(255,255,255,0.08)" stroke-width="1" stroke-linecap="round"/>

    <line x1="34" y1="0" x2="34" y2="64" stroke="rgba(220,80,80,0.45)" stroke-width="1" stroke-dasharray="3,2"/>
  </g>
</svg>